<?xml version="1.0" encoding="UTF-8" standalone="no"?>
<!-- Created with Inkscape (http://www.inkscape.org/) -->
<svg xmlns:dc="http://purl.org/dc/elements/1.1/" xmlns:cc="http://creativecommons.org/ns#" xmlns:rdf="http://www.w3.org/1999/02/22-rdf-syntax-ns#" xmlns:svg="http://www.w3.org/2000/svg" xmlns="http://www.w3.org/2000/svg" xmlns:sodipodi="http://sodipodi.sourceforge.net/DTD/sodipodi-0.dtd" xmlns:inkscape="http://www.inkscape.org/namespaces/inkscape" id="svg2" version="1.1" inkscape:version="0.48+devel r12701" width="335.81161" height="438.08688" viewBox="0 0 335.81161 438.08688" sodipodi:docname="s.svg">

  <metadata id="metadata8">
    <rdf:RDF>
      <cc:Work rdf:about="">
        <dc:format>image/svg+xml</dc:format>
        <dc:type rdf:resource="http://purl.org/dc/dcmitype/StillImage"/>
        <dc:title>ASL letter</dc:title>
        <dc:date>11/11/2013</dc:date>
        <dc:creator>
          <cc:Agent>
            <dc:title>edited by Paul Sherman</dc:title>
          </cc:Agent>
        </dc:creator>
        <dc:rights>
          <cc:Agent>
            <dc:title>PD</dc:title>
          </cc:Agent>
        </dc:rights>
        <dc:publisher>
          <cc:Agent>
            <dc:title>WPClipart</dc:title>
          </cc:Agent>
        </dc:publisher>
        <dc:subject>
          <rdf:Bag>
            <rdf:li>sign</rdf:li>
            <rdf:li>language</rdf:li>
            <rdf:li>letter</rdf:li>
            <rdf:li>american</rdf:li>
          </rdf:Bag>
        </dc:subject>
        <cc:license rdf:resource="http://creativecommons.org/publicdomain/zero/1.0/"/>
      </cc:Work>
      <cc:License rdf:about="http://creativecommons.org/publicdomain/zero/1.0/">
        <cc:permits rdf:resource="http://creativecommons.org/ns#Reproduction"/>
        <cc:permits rdf:resource="http://creativecommons.org/ns#Distribution"/>
        <cc:permits rdf:resource="http://creativecommons.org/ns#DerivativeWorks"/>
      </cc:License>
    </rdf:RDF>
  </metadata>
  <defs id="defs6"/>
  <sodipodi:namedview pagecolor="#ffffff" bordercolor="#666666" borderopacity="1" objecttolerance="10" gridtolerance="10" guidetolerance="10" inkscape:pageopacity="0" inkscape:pageshadow="2" inkscape:window-width="1028" inkscape:window-height="994" id="namedview4" showgrid="false" fit-margin-top="12" fit-margin-left="12" fit-margin-right="12" fit-margin-bottom="12" inkscape:zoom="0.59091362" inkscape:cx="233.61386" inkscape:cy="194.90461" inkscape:window-x="363" inkscape:window-y="0" inkscape:window-maximized="0" inkscape:current-layer="svg2"/>
  <path style="fill:#000000" d="m 61.2605,424.01401 c -1.15841,-1.76796 -3.457114,-4.56539 -5.108229,-6.2165 -4.742125,-4.74212 -6.002455,-13.92724 -6.899887,-50.28541 l -0.833056,-33.75 -4.057713,-7.82796 c -3.143213,-6.06375 -5.160085,-13.38838 -8.949037,-32.5 C 32.722349,279.86451 27.635697,256.66835 24.108909,241.8871 10.53355,184.99092 11.228521,189.11776 12.854712,175.05807 16.408656,144.33146 31.002014,118.83401 55.389172,100.74205 65.36998,93.337652 73.41668,89.312982 83.26961,86.797252 c 8.63738,-2.20536 9.58589,-3.5886 9.58589,-13.97923 l 0,-8.890515 6.09092,-5.870875 c 6.86857,-6.620411 15.40765,-10.359541 30.60319,-13.40064 9.55326,-1.911903 13.6869,-1.618811 20.89281,1.481382 1.55483,0.66893 2.27789,-0.527442 3.48459,-5.765597 1.61765,-7.022008 9.41166,-21.272006 13.81353,-25.255631 5.47437,-4.95425 46.96773,-3.742224 61.79405,1.805011 6.79923,2.543923 13.32091,8.351866 13.32091,11.86308 0,3.014319 2.82935,3.713109 18.125,4.476506 22.94981,1.145411 40.66855,8.361689 45.93556,18.708093 3.24937,6.38299 2.75625,18.996386 -1.56056,39.918266 -2.05685,9.968748 -3.74205,19.338658 -3.74486,20.822018 -0.005,2.72699 11.91005,45.06222 15.59549,55.41123 4.47542,12.56741 7.14581,25.67704 6.51328,31.97551 -1.23931,12.34068 -5.18852,17.95118 -50.63621,71.93696 -11.21851,13.3261 -24.22905,29.85428 -28.91229,36.72928 -21.2955,31.26182 -32.91515,61.63939 -35.74853,93.45835 -0.77643,8.71921 -1.21923,9.96093 -4.34615,12.1875 -6.35033,4.52183 -6.5995,3.92973 -5.66367,-13.45835 1.09836,-20.40788 3.69029,-38.30487 6.69133,-46.20294 2.0234,-5.32519 10.71067,-20.85076 23.98187,-42.85956 1.86553,-3.09375 4.84124,-8.18494 6.61271,-11.31375 3.62818,-6.40816 7.14739,-10.71978 26.05753,-31.92473 28.21902,-31.64348 42.32435,-50.01352 48.66582,-63.37982 4.88703,-10.30068 3.99769,-18.34177 -4.01855,-36.33434 -7.83886,-17.59445 -14.63111,-39.47863 -15.97647,-51.47521 -1.31125,-11.69249 -3.37159,-14.27259 -16.06018,-20.111748 -5.80741,-2.6725 -11.40235,-6.48257 -15.42173,-10.50196 l -6.30785,-6.30785 -12.14753,0.83664 -12.14752,0.83665 -2.85587,7.96306 -2.85587,7.96306 -5.94983,0 c -4.65126,0 -7.15023,-0.85051 -11.44987,-3.89688 -7.18719,-5.09224 -21.12505,-18.73213 -21.12505,-20.67343 0,-0.90809 4.63043,1.634493 10.59424,5.760044 10.28271,7.113199 23.17273,13.192743 28.57896,5.956409 l 3.54821,-4.749343 -4.96932,-4.0109 c -2.73314,-2.206 -7.83098,-7.48449 -11.32854,-11.72999 -3.49757,-4.245499 -7.62385,-8.604874 -9.16951,-9.6875 -6.5556,-4.59172 -17.64712,-0.781176 -22.6475,7.78066 -3.75756,6.433849 -4.24554,18.50567 -1.04088,25.75033 3.1052,7.01984 16.2683,21.035408 27.75377,29.551168 8.92616,6.61822 21.944,13.25542 28.36807,14.46362 4.04957,0.76161 5.15754,2.1615 2.84294,3.592 -0.67075,0.41455 -3.20361,4.30155 -5.62856,8.63777 -6.1079,10.92195 -9.46269,24.87181 -9.50074,39.50604 -0.0344,13.2207 1.26324,19.04216 5.17197,23.20283 3.64643,3.88143 2.89041,8.79519 -1.28117,8.32718 -6.44623,-0.72321 -11.88391,-8.46865 -13.26743,-18.89811 -1.29608,-9.77034 1.81613,-41.00049 4.64832,-46.6446 2.72526,-5.43104 2.91688,-7.24171 0.76467,-7.2256 -2.67399,0.02 -7.1875,17.55921 -7.1875,27.93009 l 0,9.39083 -5.56155,4.55728 c -5.59234,4.5825 -19.97282,10.53465 -25.57046,10.58374 -1.65385,0.0145 -4.8507,-1.37989 -7.1041,-3.09864 -2.2534,-1.71875 -4.41586,-3.125 -4.80549,-3.125 -0.38962,0 -0.7084,2.16152 -0.7084,4.8034 0,12.23886 -9.6524,20.80784 -25.05934,22.24656 -7.61617,0.71121 -8.71917,0.4671 -17.20985,-3.80872 -6.5137,-3.28025 -9.44152,-5.52714 -10.382,-7.96744 l -1.30988,-3.3988 -2.32507,4.49401 c -1.80777,3.49418 -4.02743,5.23231 -9.97685,7.8125 -4.20848,1.82516 -8.88035,3.31321 -10.3819,3.30676 -6.433,-0.0276 -24.60511,-13.93791 -24.60511,-18.83456 0,-1.27114 1.125,-5.16531 2.5,-8.65371 2.73335,-6.93455 3.13281,-11.92283 1.33373,-16.65476 -1.88037,-4.94577 -8.62769,-11.83543 -15.213134,-15.53409 l -6.118055,-3.43615 -0.0013,-14.04228 -0.0013,-14.04227 4.362328,2.08025 c 4.814686,2.29596 5.073248,2.84162 6.249982,13.18985 0.69789,6.1373 1.68203,8.23435 6.74608,14.375 10.7181,12.99669 11.86538,15.67727 12.41957,29.01797 0.52969,12.75123 1.48578,14.94659 7.96951,18.29945 4.79085,2.47745 10.13375,2.1652 13.9206,-0.81352 3.766099,-2.96243 11.844469,-18.82554 12.357719,-24.26631 0.323,-3.42398 -0.0261,-3.76692 -4.65079,-4.56858 -4.68944,-0.81287 -12.074553,-2.30937 -16.902581,-0.34336 -9.019261,3.67271 -19.324338,7.05878 -14.773273,1.14607 1.664644,-2.16269 3.849788,-4.77174 7.503535,-7.52661 0.3579,-0.35791 7.762878,-4.25662 13.549054,-4.1294 8.555115,0.18809 5.152565,-1.50932 8.555115,0.18809 4.43746,2.2137 7.16084,2.07722 3.9481,-6.37556 -3.61343,-9.50702 -4.96901,-16.48893 -6.23006,-32.08773 -1.32388,-16.37581 -2.926039,-22.49085 -6.945909,-26.510718 -3.63657,-3.63656 -10.22649,-3.94059 -14.47291,-0.6677 -1.63959,1.2637 -6.63732,4.189298 -11.10607,6.501338 -5.39242,2.78991 -11.7168,7.79763 -18.804778,14.88986 -9.055301,9.06071 -11.74141,12.77765 -17.659248,24.43616 -5.044937,9.93885 -7.147139,15.59827 -7.584392,20.41825 -0.391463,4.31522 -1.01359,9.78773 -0.114617,10.01379 0.764044,0.19214 5.563694,3.2348 10.794706,3.10533 l 9.705156,-0.24023 6.373117,-4.57864 6.373116,-4.57863 c 13.821934,-2.49446 5.79697,1.25306 8.664157,1.88853 2.528237,0.56035 2.069927,3.61615 1.334387,3.89668 -0.73554,0.28052 -9.160924,3.96003 -12.863821,6.34568 -3.702894,2.38564 -8.640807,4.69551 -10.973142,5.13306 -4.582678,0.85973 -15.651823,0.004 -19.495765,-1.50698 -2.263442,-0.88978 -2.334143,-0.4167 -1.49089,9.97595 0.507335,6.25261 2.491279,16.07907 4.647422,23.01861 4.500217,14.48395 11.625258,44.7961 17.977903,76.4836 2.549828,12.71875 5.726688,25.26341 7.059688,27.87701 3.494321,6.8513 11.378901,11.3483 24.447431,13.94369 6.02978,1.1975 12.49824,2.97105 14.37435,3.94122 3.41363,1.76527 6.76576,6.3742 5.53277,7.60719 -0.36024,0.36025 -8.39455,-0.23045 -17.854,-1.31266 -9.45946,-1.08221 -17.39339,-1.77327 -17.63095,-1.53571 -3.19148,3.19147 -3.36422,49.51663 -0.26709,71.6275 1.67843,11.9826 1.27609,14.42996 -1.64051,9.97867 z M 151.2314,202.8246 c 6.28419,-6.89946 6.56717,-10.70059 2.95469,-39.6875 -4.26624,-34.23258 -4.24379,-33.54056 -1.41839,-43.73638 3.54702,-12.79986 3.38505,-27.021918 -0.49764,-43.694898 -1.67225,-7.180953 -4.12749,-14.493453 -5.45609,-16.249999 -2.21205,-2.924562 -3.15267,-3.180076 -11.1611,-3.03182 -27.59698,0.510894 -36.2747,14.902241 -26.03787,43.181909 3.09824,8.559028 4.642,15.593258 5.66255,25.801658 0.777,7.77217 2.84602,18.62392 4.63685,24.31958 1.77857,5.65673 3.45391,11.04644 3.72297,11.97714 0.27843,0.96311 1.3377,1.3666 2.45857,0.93648 1.08315,-0.41564 5.71902,-1.06562 10.30196,-1.4444 12.14762,-1.004 17.73357,-1.09977 19.96412,10.03396 1.62996,8.13591 5.1956,8.29997 3.25415,11.26301 -1.61531,2.46528 3.41816,6.54262 0.11811,6.54262 -4.71697,0 -5.61591,-5.3677 -6.92472,-11.19322 -1.25905,-5.60405 -9.5681,-8.31114 -13.05496,-9.18629 -7.6678,-1.92449 -14.41341,6.82194 -16.74921,21.71717 -1.06552,6.79468 -0.97783,7.15472 2.54378,10.4444 4.08197,3.81313 6.13558,4.40423 16.15094,4.64885 5.76431,0.14079 7.41261,-0.31614 9.53129,-2.64227 z m 41.8834,-22.68783 c 4.20364,-2.75433 6.53186,-8.54462 6.5784,-16.36045 l 0.0373,-6.26422 -5.7685,-2.61354 c -6.47913,-2.9355 -15.4184,2.21206 -17.74969,3.79037 -2.99621,2.02846 -3.09669,8.87734 -2.36528,12.70299 1.51099,7.90323 0.61212,10.3002 0.61212,10.3002 -6.24975,-0.33366 -9.31768,-2.01373 -8.20439,-13.27269 0.37785,-3.82129 0.53431,-9.36653 0.53431,-9.36653 l 7.71134,-8.31351 c 3.9312,-4.23818 5.6484,-3.92193 8.39724,-4.64365 4.24515,-1.11459 13.86336,0.34367 17.5543,1.82773 1.46147,0.58764 3.49985,-3.64946 4.71577,-8.19281 1.52578,-5.70107 1.46917,-6.05259 -1.26327,-7.84356 -9.97269,-6.53659 -24.79149,-21.32525 -34.44685,-34.376758 l -2.7729,-3.74824 -0.0396,4.5888 c -0.0217,2.523848 -1.21297,9.529348 -2.6471,15.567788 -2.06541,8.69646 -2.43845,13.06987 -1.79433,21.0362 2.44035,30.1818 8.3878,46.61797 17.52683,48.43661 3.53798,0.70404 9.5877,-0.7671 13.3843,-3.25473 z M 295.97521,81.183192 c 1.01029,-4.7691 1.84665,-11.513871 1.85859,-14.988381 0.019,-5.511635 -0.4964,-6.812331 -4.0408,-10.198976 -5.0876,-4.861157 -9.99449,-6.883178 -25.26898,-10.412794 -10.83123,-2.502873 -12.81411,-2.630379 -18.75226,-1.205839 l -6.6403,1.592984 -2.01395,10.145957 c -1.10767,5.580278 -2.01351,10.754738 -2.01299,11.4988 6.4e-4,0.874128 2.41332,1.15279 6.81824,0.7875 9.83694,-0.815755 12.00211,0.08194 21.73038,9.009569 4.81101,4.41506 9.98323,8.68884 11.49383,9.49729 4.41863,2.36477 13.0012,4.67124 14.03744,3.7724 0.52465,-0.45508 1.78051,-4.72942 2.7908,-9.49851 z M 172.24014,53.123975 c 5.30146,-7.222032 14.80017,-12.486873 22.52856,-12.486873 5.72551,0 14.89891,5.600424 25.84575,15.778994 3.23617,3.009054 6.36927,5.471006 6.96246,5.471006 1.01905,0 4.05098,-21.767376 4.03569,-28.973878 -0.008,-3.790171 -1.80556,-4.343988 -25.6321,-7.897253 -24.26238,-3.618262 -31.86211,-1.951325 -37.02509,8.121131 -3.35476,6.544829 -6.09991,18.382568 -6.09991,26.30429 0,8.653496 1.288,10.289569 3.36883,4.27924 0.86545,-2.499795 3.57256,-7.268291 6.01581,-10.596657 z m 1.86536,279.744745 c -15.09908,-5.7939 -35.35653,-32.24441 -42.27873,-55.20406 -4.21346,-13.97527 -4.5004,-32.58737 -0.62865,-40.77756 6.00337,-12.69934 6.57374,-12.25869 6.61763,5.11255 0.0704,27.86472 7.47912,47.76585 25.33313,68.04906 11.3939,12.94415 18.63875,15.5971 28.6484,10.49055 l 5.09218,-2.59783 3.65804,3.50461 c 4.88433,4.67949 4.1914,7.71489 -2.5761,11.28489 -6.90072,3.64028 -14.62214,3.68486 -23.8659,0.1378 z m 83.75,-201.70948 c 0,-3.24418 7.71957,-16.16011 12.82598,-21.45964 3.36565,-3.49295 4.76913,-4.0625 10.01088,-4.0625 5.12818,0 6.03168,0.34744 5.68863,2.1875 -0.22431,1.20312 -2.34639,3.15587 -4.71574,4.33945 -2.36936,1.18357 -8.69582,6.51412 -14.05884,11.84567 -7.46564,7.42185 -9.75091,9.09745 -9.75091,7.14952 z" id="path4064" inkscape:connector-curvature="0" sodipodi:nodetypes="csscssssssscsssssssssscsssssssssssssssscccccssssscsssssssssssssssscsssssssscssssssscccsssssssssscsssssssssscscccscsscssssssssssccssssssssssssssssssssssscssscscssssssccssssscssscscssssssssscssssscssssscssccsssssss"/>
</svg>